<svg xmlns="http://www.w3.org/2000/svg" viewBox="0 0 13 13" width="13" height="13">
  <!-- edges -->
  <rect x="0" y="0" width="3" height="3" fill="black"></rect>
  <rect x="1" y="1" width="2" height="2" fill="white"></rect>
  
  <rect x="10" y="0" width="3" height="3" fill="black"></rect>
  <rect x="10" y="1" width="2" height="2" fill="white"></rect>
  
  <rect x="0" y="10" width="3" height="3" fill="black"></rect>
  <rect x="1" y="10" width="2" height="2" fill="white"></rect>
  
  <rect x="10" y="10" width="3" height="3" fill="black"></rect>
  <rect x="10" y="10" width="2" height="2" fill="white"></rect>
  
  <!-- eyes -->
  <rect x="2" y="2" width="4" height="4" fill="black"></rect>
  <rect x="3" y="3" width="2" height="2" fill="white"></rect>
  
  <rect x="7" y="2" width="4" height="4" fill="black"></rect>
  <rect x="8" y="3" width="2" height="2" fill="white"></rect>
  
  <rect x="2" y="7" width="4" height="4" fill="black"></rect>
  <rect x="3" y="8" width="2" height="2" fill="white"></rect>
  
  <!-- random corner -->
  <rect x="7" y="7" width="1" height="1" fill="black"></rect>
  <rect x="9" y="7" width="1" height="1" fill="black"></rect>
  <rect x="10" y="7" width="1" height="2" fill="black"></rect>
  <rect x="8" y="8" width="1" height="3" fill="black"></rect>
  <rect x="9" y="10" width="1" height="1" fill="black"></rect>
</svg>